<svg xmlns="http://www.w3.org/2000/svg" viewBox="0 0 64 64"><defs><style>.cls-1{fill:none;}</style></defs><title>frisdrank</title><g id="_64px_Box" data-name="64px Box"><rect class="cls-1" width="64" height="64"/></g><g id="Icon"><path d="M48.59,6.32l-.32-2L36.8,6.19h0a4.15,4.15,0,0,0-.61.14l.57,1.92a1.35,1.35,0,0,1,.36-.08h0Z" fill = "#ffffff"/><path d="M32.63,10.5h0l-.41,3.34h2l.39-3.09h0a2.2,2.2,0,0,1,.07-.37l-1.94-.5C32.7,10.09,32.66,10.3,32.63,10.5Z" fill = "#ffffff"/><path d="M33.11,8.92l1.79.88a3.39,3.39,0,0,1,.34-.53L33.66,8A5.39,5.39,0,0,0,33.11,8.92Z" fill = "#ffffff"/><path d="M34.38,7.3l1.29,1.53a3.07,3.07,0,0,1,.51-.35l-1-1.76A5.54,5.54,0,0,0,34.38,7.3Z" fill = "#ffffff"/><polygon points="31.65 18.38 29.69 34.14 31.71 34.14 33.67 18.38 31.65 18.38" fill = "#ffffff"/><path d="M42.37,48.93a63.24,63.24,0,0,0-2.5-19.38A41.37,41.37,0,0,1,38,17.6h.43a.8.8,0,0,0,.8-.8V16A1.21,1.21,0,0,0,38,14.74H26A1.21,1.21,0,0,0,24.77,16v.85a.8.8,0,0,0,.8.8H26a41.37,41.37,0,0,1-1.87,12,63.24,63.24,0,0,0-2.5,19.38l-.08,8.36a2.85,2.85,0,0,0,1.74,2.64c1.3.52,3.86,1,8.71,1s7.41-.51,8.71-1a2.85,2.85,0,0,0,1.74-2.64Zm-16.8,7.24c1.5,1,11.72,1.61,11.72,1.61.61,0,.56.39.52.45a31.92,31.92,0,0,1-5.81.44c-2.18,0-5.78-.07-7.81-.89a.39.39,0,0,1-.23-.36l-.05-8.49a57.21,57.21,0,0,1,2.3-17.08,49.83,49.83,0,0,0,2.2-14.27h7.18a49.83,49.83,0,0,0,2.2,14.27c.35,1.14.65,2.28.9,3.41H27.17A53.8,53.8,0,0,0,25.57,48Z" fill = "#ffffff"/></g></svg>