<svg xmlns="http://www.w3.org/2000/svg" viewBox="0 0 64 64"><title>6060 bonen</title><g id="paneel_1" data-name="paneel 1"><path d="M14.41,23.23c-10.32,2-8.82,7-7.9,8.82s4.16,2.58,5.9,2,2.67-1.79,5.37-2.62a23.21,23.21,0,0,1,5.46-.92c2-.21,3.63-1.39,3.66-3.37C26.94,24.48,24.74,21.23,14.41,23.23Zm3,7.57c-1.08.35-2.06.78-2.19.35s.48-1.39,1.55-1.74,2.19.07,2.33.5S18.44,30.46,17.37,30.8Z" fill = "#ffffff"/><path d="M27.05,45.09c9.1,3.3,10.28-1.36,10.42-3.24s-2.07-4-3.75-4.34-2.95.16-5.48-.46a21.6,21.6,0,0,1-4.75-1.85c-1.71-.8-3.53-.62-4.49.93C17.73,38.19,17.94,41.79,27.05,45.09Zm1.24-7.39c1,.24,2,.37,1.9.77s-1,.87-2.05.64-1.71-1.09-1.61-1.5S27.28,37.47,28.29,37.7Z" fill = "#ffffff"/><path d="M43,14.33c8.71,1.29,8.91-3.07,8.7-4.77s-2.58-3.2-4.13-3.19-2.6.67-5,.58A20.17,20.17,0,0,1,38,6.16c-1.67-.4-3.25.09-3.83,1.64C33.4,9.87,34.24,13,43,14.33Zm-.24-6.81c1,0,1.84,0,1.83.34s-.77,1-1.71.94-1.71-.66-1.7-1S41.78,7.5,42.72,7.52Z" fill = "#ffffff"/><path d="M19.31,13.74c-.36,1.79.83,3.17,2.63,3.77a21.36,21.36,0,0,1,4.71,1.91c2.27,1.29,2.86,2.52,4.31,3.43s4.52.88,5.71-.58,3.53-5.65-5.36-9.51S19.8,11.38,19.31,13.74Zm6.49,4.1c.21-.36,1.3-.51,2.19,0s1.26,1.51,1.06,1.87-1-.23-1.91-.75S25.6,18.19,25.8,17.84Z" fill = "#ffffff"/><path d="M40,51.31c1.14,1.43,3,1.41,4.57.41A21.5,21.5,0,0,1,49,49.34c2.44-.91,3.76-.57,5.39-1.1S58,45.35,57.65,43.5s-2.07-6.34-10.73-2S38.46,49.42,40,51.31ZM47.27,49c-.14-.38.45-1.31,1.42-1.66s2,0,2.11.4-.81.62-1.79,1S47.41,49.36,47.27,49Z" fill = "#ffffff"/><path d="M29.76,29.37c-.3,1.47.69,2.62,2.17,3.11a17.53,17.53,0,0,1,3.89,1.58c1.88,1.06,2.36,2.08,3.56,2.83s3.73.73,4.71-.48,2.92-4.67-4.42-7.85S30.17,27.41,29.76,29.37Zm5.36,3.38c.17-.3,1.07-.42,1.81,0s1,1.25.87,1.54-.83-.18-1.57-.62S35,33,35.12,32.75Z" fill = "#ffffff"/><path d="M55.19,29.46a2.58,2.58,0,0,0-1.09-3.4A16.92,16.92,0,0,1,51,23.55C49.65,22.07,49.49,21,48.62,20s-3.15-1.7-4.37-.89-3.93,3.4,1.79,8.3S54.28,31.1,55.19,29.46Zm-3.88-4.54c-.24.22-1.08.08-1.63-.51s-.59-1.42-.35-1.64.69.4,1.24,1S51.54,24.71,51.31,24.92Z" fill = "#ffffff"/><path d="M7.47,46.54c-.36,1.74.8,3.08,2.54,3.65a21.17,21.17,0,0,1,4.58,1.86c2.19,1.25,2.77,2.44,4.17,3.33s4.38.85,5.54-.57,3.42-5.48-5.19-9.22S7.94,44.25,7.47,46.54Zm6.29,4c.2-.35,1.26-.49,2.13,0s1.22,1.47,1,1.82-1-.22-1.85-.73S13.56,50.86,13.76,50.52Z" fill = "#ffffff"/></g></svg>