<svg xmlns="http://www.w3.org/2000/svg" viewBox="0 0 64 64"><defs><style>.cls-1{fill:none;}</style></defs><title>vet_v2</title><g id="Box"><rect class="cls-1" width="64" height="64"/></g><g id="Icon"><path d="M57.38,49.17c-.61-3.13-2.57-5.62-4.65-8.26s-4.21-5.33-5.45-9c-.13-.4-.49-1.47-1.58-1.47s-1.45,1.07-1.58,1.47c-1.24,3.72-3.38,6.44-5.45,9.06s-4,5.13-4.65,8.25a10.14,10.14,0,0,0,2.13,8.56A12.19,12.19,0,0,0,45.7,62a12.19,12.19,0,0,0,9.53-4.23A10.2,10.2,0,0,0,57.38,49.17ZM46.52,58.41a8.91,8.91,0,0,1-7.45-3,6.83,6.83,0,0,1-1.41-5.73,9.56,9.56,0,0,1,1.14-2.86c.14-.24.3-.22.37-.12a10.38,10.38,0,0,0,2.3,7.61,12.17,12.17,0,0,0,5.4,3.75C46.93,58.22,46.9,58.38,46.52,58.41Z" fill = "#ffffff"/><path d="M30.69,39.08a1.29,1.29,0,0,0,.4-.07l.14-.08a1.43,1.43,0,0,0,.21-.12,1.71,1.71,0,0,0,.11-.14c.05-.06.11-.11.15-.17a1.3,1.3,0,0,0,.14-.39L34.05,25v-.09l1-6.11h4.49a1.17,1.17,0,0,0,0-2.33H34.09a1.17,1.17,0,0,0-1.14,1L31.9,23.67H7.58A1.16,1.16,0,0,0,6.44,25.1l1.42,6.07a1.28,1.28,0,0,0,.07.34l1.56,6.67a1.16,1.16,0,0,0,1.13.9ZM9,26H13l.42,3.82H9.93Zm2.51,10.75L10.5,32.27h3.16l.49,4.48Zm7.66,0H16.62l-.49-4.48h3.08Zm0-6.93H15.86L15.45,26h3.76ZM27.68,26h3.83l-.64,3.82H27.44ZM24.55,36.75H21.66V32.27h3.17ZM25,29.82H21.66V26h3.56Zm4.72,6.93H27l.28-4.48h3.17Z" fill = "#ffffff"/><path d="M16.89,16.08c.6.5,1.71.92,1.92,1.81A4.63,4.63,0,0,1,17.92,21a4.05,4.05,0,0,0,3.33-3.06c.42-1.85-.84-2.65-1.84-3.6a10.59,10.59,0,0,1-1-1c-1.13-1.39-.75-3.34-.71-3.83a4.51,4.51,0,0,0-2.34,3.4A3.43,3.43,0,0,0,16.89,16.08Z" fill="#ffffff"/><path d="M25.44,15.59c.32,2.26-1.47,4.75-1.47,4.75A5.46,5.46,0,0,0,28.79,16c.72-2.87-.93-4.34-2.22-6a17.41,17.41,0,0,1-1.29-1.74c-1.43-2.38-.74-5.43-.65-6.2a6.78,6.78,0,0,0-3.48,5.06A6.14,6.14,0,0,0,23,12.43C23.76,13.31,25.24,14.15,25.44,15.59Z" fill = "#ffffff"/></g></svg>