<svg xmlns="http://www.w3.org/2000/svg" viewBox="0 0 64 64"><defs><style>.cls-1{fill:none;}</style></defs><title>taart</title><g id="Box"><rect class="cls-1" width="64" height="64"/></g><g id="Icon"><path d="M57.3,26.64l-5.58-3.52a4.12,4.12,0,0,1-2.12,4.2c-2.8,1.61-6.68,1.74-9.18,1.61a.16.16,0,0,1-.06-.31c3.23-.2,6.18-.87,7.58-2.06h0a4.2,4.2,0,0,0,1.4-4.91h0l0,0a4.36,4.36,0,0,0-3.19-2.93c1.5-.77,3.3-4.61-.88-6.79a9.73,9.73,0,0,1-5.56,3.36c-.55.16-1.51.32-1.53-.07,0,0,14.79-6.88-.67-13.09a.68.68,0,0,0-.93.85c.76,1.69,2,3.85-.05,5.27-3.26,2.19-7,3.77-7,7,0,2.49,2.44,5.62,10.49,5.25,0,0,.26.73-1.84,1.13-2.92.55-9-.07-10.47-4.41a6.89,6.89,0,0,0-1.24,6.68L6.06,32.49c-1.26.64-1.16,3.09-1.16,3.09V58.2A3.76,3.76,0,0,0,8.66,62l.4,0,46.67-5a3.76,3.76,0,0,0,3.36-3.74V30.58S59.34,27.54,57.3,26.64Zm-48,8.53,46-4.93h0a.31.31,0,0,1,.23.09.31.31,0,0,1,.11.25v7.18L8.32,42.83v-6.6A1.07,1.07,0,0,1,9.27,35.17ZM54.72,53.61l-46,4.93a.38.38,0,0,1-.27-.08.35.35,0,0,1-.11-.26V50.93l47.35-5.07v6.69A1.06,1.06,0,0,1,54.72,53.61Z" fill = "#ffffff"/></g></svg>